<svg width="1080" height="1080" viewBox="0 0 1080 1080" fill="none" xmlns="http://www.w3.org/2000/svg">
<mask id="mask0_391_275" style="mask-type:luminance" maskUnits="userSpaceOnUse" x="489" y="440" width="107" height="212">
<path d="M489.334 440H596.001V652H489.334V440Z" fill="white"/>
</mask>
<g mask="url(#mask0_391_275)">
<mask id="mask1_391_275" style="mask-type:luminance" maskUnits="userSpaceOnUse" x="476" y="426" width="128" height="229">
<path d="M476.24 445.24L545.641 426.073L603.407 635.245L534.006 654.412L476.24 445.24Z" fill="white"/>
</mask>
<g mask="url(#mask1_391_275)">
<mask id="mask2_391_275" style="mask-type:luminance" maskUnits="userSpaceOnUse" x="476" y="426" width="128" height="229">
<path d="M476.24 445.24L545.641 426.073L603.407 635.245L534.006 654.412L476.24 445.24Z" fill="white"/>
</mask>
<g mask="url(#mask2_391_275)">
<mask id="mask3_391_275" style="mask-type:luminance" maskUnits="userSpaceOnUse" x="476" y="426" width="128" height="229">
<path d="M476.24 445.24L545.641 426.073L603.407 635.245L534.006 654.412L476.24 445.24Z" fill="white"/>
</mask>
<g mask="url(#mask3_391_275)">
<path d="M585.62 586.115C585.464 598.755 587.199 611.307 590.891 623.365C566.256 610.734 544.683 592.151 528.11 569.875C510.829 546.646 498.334 518.937 494.178 490.141C491.933 474.536 492.422 457.552 501.652 444.208C502.86 442.453 501.636 438.437 499.787 441.115C491.35 453.318 489.183 468.5 490.136 483.099C491.12 498.151 495.006 513.156 500.282 527.245C510.98 555.818 528.714 581.651 551.381 601.943C562.417 611.828 574.62 620.302 587.688 627.182C572.209 631.135 557.438 637.615 544.037 646.375C543.053 647.016 542.553 648.385 542.672 649.542C542.756 650.38 543.417 651.583 544.422 650.932C559.396 641.141 576.011 634.245 593.511 630.589C593.714 630.547 593.907 630.448 594.079 630.307C595.428 630.359 596.068 627.219 595.756 626.344C591.001 613.281 588.553 599.464 588.725 585.562C588.766 582.271 585.657 583.51 585.62 586.115Z" fill="black"/>
</g>
</g>
</g>
</g>
</svg>
