<svg width="321" height="126" viewBox="0 0 321 126" fill="none" xmlns="http://www.w3.org/2000/svg">
<g clip-path="url(#clip0_30_25)">
<path d="M150.81 0.119995L147.98 14.05L145.15 27.97L142.32 41.9H114.47L117.3 27.97H47.66L44.83 41.9L42 55.83H14.14L16.98 41.9L19.81 27.97L22.63 14.05L25.46 0.119995H150.81Z" fill="black"/>
<path d="M133.83 83.68L131 97.61L128.18 111.54L125.34 125.46H0L2.83 111.54L5.66 97.61L8.49 83.68L11.32 69.76H39.17L36.34 83.68L33.51 97.61H103.15L105.98 83.68H133.83Z" fill="black"/>
<path d="M171.82 30.26L170.22 35.9H164.73L173.58 8.88H178.31L186.99 35.9H181.5L179.92 30.26H171.81H171.82ZM178.7 25.83L175.94 15.88L173.1 25.83H178.7Z" fill="black"/>
<path d="M205.74 7.40002V31.71H211.49V35.9H194.51V31.71H200.52V11.61H194.51V7.40002H205.74Z" fill="black"/>
<path d="M223.4 18.2501C223.78 17.3801 224.31 16.7001 224.99 16.2001C225.66 15.7001 226.48 15.4501 227.45 15.4501C227.92 15.4501 228.34 15.5101 228.71 15.6201C229.08 15.7301 229.4 15.9101 229.67 16.1401C229.88 16.3101 230.06 16.5201 230.22 16.7601C230.37 17.0001 230.51 17.2801 230.62 17.5901C230.79 17.2901 230.99 17.0201 231.2 16.7801C231.42 16.5401 231.65 16.3301 231.91 16.1601C232.23 15.9401 232.6 15.7601 233 15.6401C233.41 15.5201 233.85 15.4501 234.34 15.4501C234.95 15.4501 235.51 15.5601 236.04 15.7801C236.57 16.0001 237.03 16.3601 237.42 16.8401C237.8 17.3401 238.1 17.9701 238.32 18.7401C238.54 19.5101 238.64 20.4601 238.64 21.5701V35.8901H233.95V21.5501C233.95 21.1701 233.91 20.8501 233.83 20.6001C233.75 20.3501 233.64 20.1501 233.51 20.0101C233.37 19.8701 233.22 19.7801 233.04 19.7201C232.86 19.6601 232.68 19.6401 232.49 19.6401C232.29 19.6401 232.12 19.6701 231.96 19.7101C231.81 19.7601 231.66 19.8301 231.52 19.9101C231.41 20.0001 231.31 20.0901 231.22 20.2001C231.13 20.3001 231.06 20.4301 231 20.5601V35.8901H226.45V21.5301C226.45 21.1501 226.41 20.8301 226.34 20.5801C226.27 20.3301 226.17 20.1401 226.04 20.0001C225.9 19.8601 225.75 19.7701 225.58 19.7101C225.41 19.6501 225.22 19.6301 225.02 19.6301C224.8 19.6301 224.6 19.6701 224.43 19.7401C224.26 19.8101 224.1 19.9201 223.97 20.0601C223.87 20.1601 223.78 20.2801 223.71 20.4101C223.64 20.5501 223.57 20.7001 223.51 20.8601V35.8901H218.82V15.8201H223.25L223.4 18.2501Z" fill="black"/>
<path d="M258.87 35.04C258.78 34.72 258.71 34.38 258.65 34.02C258.37 34.33 258.04 34.62 257.67 34.89C257.3 35.16 256.89 35.4 256.45 35.6C255.99 35.81 255.49 35.97 254.95 36.09C254.41 36.21 253.82 36.27 253.19 36.27C252.16 36.27 251.22 36.12 250.36 35.82C249.5 35.52 248.76 35.11 248.14 34.58C247.52 34.05 247.04 33.41 246.69 32.68C246.34 31.94 246.17 31.14 246.17 30.28C246.17 29.17 246.39 28.18 246.82 27.32C247.25 26.46 247.9 25.75 248.77 25.2C249.55 24.69 250.51 24.31 251.66 24.04C252.8 23.77 254.12 23.64 255.6 23.64H258.48V22.45C258.48 21.98 258.41 21.56 258.26 21.18C258.11 20.8 257.89 20.48 257.59 20.21C257.28 19.93 256.89 19.71 256.43 19.55C255.97 19.39 255.42 19.32 254.81 19.32C254.27 19.32 253.8 19.38 253.4 19.52C253 19.65 252.68 19.83 252.44 20.07C252.22 20.28 252.05 20.53 251.95 20.83C251.84 21.13 251.79 21.45 251.79 21.81H246.63C246.63 20.96 246.82 20.15 247.2 19.38C247.58 18.61 248.13 17.94 248.86 17.36C249.58 16.78 250.46 16.32 251.5 15.98C252.54 15.64 253.74 15.47 255.09 15.47C256.3 15.47 257.43 15.62 258.48 15.92C259.52 16.22 260.43 16.66 261.2 17.24C261.97 17.82 262.57 18.55 263 19.44C263.43 20.32 263.65 21.35 263.65 22.51V31.12C263.65 32.2 263.72 33.09 263.85 33.79C263.99 34.5 264.18 35.1 264.44 35.61V35.93H259.21C259.09 35.68 258.98 35.4 258.89 35.08L258.87 35.04ZM255.72 32.09C256.17 31.97 256.57 31.81 256.93 31.61C257.29 31.41 257.6 31.19 257.86 30.93C258.12 30.68 258.32 30.42 258.47 30.16V26.71H255.84C255.04 26.71 254.35 26.79 253.78 26.94C253.21 27.1 252.75 27.31 252.39 27.58C252.03 27.87 251.77 28.2 251.59 28.59C251.42 28.98 251.33 29.4 251.33 29.86C251.33 30.22 251.39 30.55 251.52 30.85C251.65 31.15 251.84 31.41 252.09 31.62C252.34 31.82 252.64 31.98 253.01 32.09C253.37 32.21 253.8 32.27 254.28 32.27C254.8 32.27 255.28 32.21 255.73 32.08L255.72 32.09Z" fill="black"/>
<path d="M282.71 15.82H290.21V19.62H282.71V28.25C282.71 28.98 282.79 29.59 282.96 30.08C283.13 30.57 283.36 30.96 283.67 31.24C283.98 31.54 284.35 31.75 284.79 31.87C285.23 31.99 285.72 32.06 286.27 32.06C286.67 32.06 287.07 32.04 287.49 32C287.9 31.96 288.3 31.91 288.69 31.85C289.06 31.8 289.41 31.75 289.74 31.68C290.07 31.62 290.35 31.56 290.58 31.49L291.08 35.03C290.72 35.24 290.3 35.42 289.82 35.58C289.34 35.74 288.82 35.86 288.28 35.96C287.74 36.06 287.17 36.14 286.58 36.19C285.99 36.24 285.41 36.27 284.85 36.27C283.75 36.27 282.75 36.12 281.85 35.83C280.95 35.54 280.19 35.09 279.56 34.47C278.92 33.86 278.42 33.09 278.08 32.14C277.73 31.19 277.56 30.06 277.56 28.73V19.6H272.98V15.8H277.56V10.88H282.72V15.8L282.71 15.82Z" fill="black"/>
<path d="M301.73 43.9101C301.36 43.8501 300.96 43.7501 300.51 43.6301L301.14 39.7001C301.35 39.7001 301.62 39.7001 301.95 39.7301C302.28 39.7501 302.54 39.7601 302.74 39.7601C303.15 39.7601 303.51 39.6301 303.83 39.3801C304.15 39.1301 304.41 38.8501 304.64 38.5501C304.87 38.2501 305.03 38.0301 305.13 37.8801C305.23 37.7301 305.36 37.5201 305.51 37.2501L306.7 35.0401L298.2 15.8201H303.84L308.44 27.5801L309 29.6201L309.76 27.6201L314.34 15.8201H320.04L309.85 38.9001C309.63 39.4101 309.34 39.9601 308.99 40.5501C308.64 41.1401 308.2 41.6901 307.66 42.2001C307.13 42.7101 306.48 43.1301 305.72 43.4801C304.96 43.8301 304.06 44.0001 303.02 44.0001C302.52 44.0001 302.1 43.9701 301.73 43.9101Z" fill="black"/>
<path d="M184.52 69.1101C184.02 70.2001 183.35 71.1301 182.51 71.8901C181.67 72.6601 180.67 73.2501 179.5 73.6601C178.34 74.0801 177.05 74.2801 175.64 74.2801C174.53 74.2801 173.5 74.1301 172.55 73.8401C171.6 73.5501 170.75 73.1301 170 72.5901C169.31 72.0801 168.69 71.4701 168.15 70.7501C167.61 70.0301 167.16 69.2401 166.79 68.3701C166.43 67.5001 166.16 66.5501 165.96 65.5101C165.77 64.4701 165.67 63.3701 165.67 62.2101V58.5701C165.67 57.4801 165.76 56.4501 165.93 55.4601C166.1 54.4801 166.36 53.5701 166.71 52.7201C167.11 51.6901 167.63 50.7801 168.27 49.9701C168.91 49.1701 169.64 48.4901 170.46 47.9301C171.19 47.4601 171.99 47.1001 172.86 46.8401C173.73 46.5901 174.67 46.4601 175.67 46.4601C177.15 46.4601 178.47 46.6701 179.63 47.0901C180.79 47.5101 181.77 48.1101 182.59 48.8901C183.41 49.6701 184.05 50.6201 184.52 51.7501C184.99 52.8801 185.29 54.1401 185.41 55.5501H180.21C180.16 54.7501 180.04 54.0401 179.85 53.4301C179.66 52.8201 179.38 52.3201 179.02 51.9101C178.65 51.5101 178.19 51.2101 177.64 51.0101C177.09 50.8001 176.43 50.7001 175.66 50.7001C175.25 50.7001 174.87 50.7401 174.52 50.8301C174.17 50.9201 173.84 51.0501 173.55 51.2201C173.04 51.5201 172.61 51.9401 172.26 52.4901C171.91 53.0401 171.63 53.6801 171.42 54.4101C171.26 54.9801 171.14 55.6101 171.07 56.2901C171 56.9801 170.96 57.7201 170.96 58.5101V62.1801C170.96 63.2601 171.02 64.2201 171.14 65.0701C171.26 65.9201 171.44 66.6601 171.69 67.2901C171.86 67.7201 172.07 68.1101 172.31 68.4401C172.55 68.7701 172.83 69.0501 173.14 69.2701C173.47 69.5201 173.85 69.7001 174.26 69.8201C174.67 69.9401 175.14 70.0001 175.64 70.0001C176.32 70.0001 176.93 69.9101 177.48 69.7401C178.02 69.5701 178.49 69.2901 178.87 68.9201C179.25 68.5501 179.56 68.0701 179.78 67.4901C180 66.9101 180.14 66.2101 180.19 65.3901H185.4C185.31 66.7501 185.02 67.9801 184.52 69.0601V69.1101Z" fill="black"/>
<path d="M193.36 59.6201C193.78 58.3801 194.4 57.3001 195.22 56.3801C196.02 55.4601 197.01 54.7501 198.18 54.2301C199.35 53.7101 200.69 53.4501 202.2 53.4501C203.71 53.4501 205.05 53.7101 206.23 54.2301C207.4 54.7501 208.4 55.4701 209.22 56.3801C210.02 57.3001 210.64 58.3701 211.06 59.6201C211.48 60.8601 211.69 62.2101 211.69 63.6701V64.0601C211.69 65.5301 211.48 66.8901 211.06 68.1301C210.64 69.3701 210.03 70.4501 209.22 71.3701C208.42 72.2901 207.43 73.0001 206.25 73.5101C205.07 74.0201 203.74 74.2801 202.24 74.2801C200.74 74.2801 199.39 74.0201 198.2 73.5101C197.02 73.0001 196.03 72.2801 195.22 71.3701C194.4 70.4501 193.78 69.3801 193.36 68.1301C192.94 66.8901 192.73 65.5301 192.73 64.0601V63.6701C192.73 62.2101 192.94 60.8601 193.36 59.6201ZM198.13 66.4301C198.29 67.1701 198.54 67.8101 198.89 68.3501C199.24 68.9101 199.68 69.3501 200.24 69.6701C200.79 69.9901 201.46 70.1501 202.23 70.1501C203 70.1501 203.63 69.9901 204.18 69.6701C204.72 69.3501 205.17 68.9101 205.52 68.3501C205.85 67.8101 206.1 67.1701 206.26 66.4301C206.42 65.6901 206.5 64.9101 206.5 64.0601V63.6701C206.5 62.8501 206.42 62.0801 206.26 61.3501C206.1 60.6201 205.85 59.9801 205.52 59.4201C205.17 58.8601 204.73 58.4201 204.18 58.1001C203.64 57.7801 202.97 57.6201 202.19 57.6201C201.41 57.6201 200.77 57.7801 200.22 58.1001C199.68 58.4201 199.23 58.8601 198.88 59.4201C198.53 59.9801 198.28 60.6201 198.12 61.3501C197.96 62.0801 197.88 62.8501 197.88 63.6701V64.0601C197.88 64.9001 197.96 65.6901 198.12 66.4301H198.13Z" fill="black"/>
<path d="M220.03 59.54C220.38 58.28 220.9 57.2 221.58 56.29C222.26 55.39 223.09 54.69 224.06 54.19C225.03 53.7 226.14 53.45 227.39 53.45C228.44 53.45 229.37 53.64 230.16 54.02C230.96 54.4 231.67 54.93 232.28 55.62V45.4H237.46V73.9H232.8L232.54 71.8C231.91 72.58 231.17 73.19 230.31 73.62C229.45 74.05 228.47 74.27 227.34 74.27C226.12 74.27 225.02 74.01 224.05 73.5C223.08 72.99 222.26 72.28 221.59 71.38C220.91 70.48 220.39 69.4 220.03 68.16C219.67 66.92 219.49 65.57 219.49 64.11V63.72C219.49 62.2 219.67 60.81 220.02 59.55L220.03 59.54ZM224.87 66.45C225.01 67.17 225.24 67.8 225.57 68.33C225.89 68.87 226.31 69.3 226.81 69.61C227.32 69.92 227.94 70.07 228.67 70.07C229.56 70.07 230.3 69.88 230.89 69.49C231.48 69.11 231.94 68.58 232.29 67.91V59.78C231.94 59.1 231.48 58.57 230.9 58.19C230.32 57.81 229.59 57.62 228.71 57.62C227.98 57.62 227.36 57.78 226.85 58.09C226.34 58.41 225.92 58.84 225.6 59.38C225.28 59.94 225.04 60.58 224.89 61.32C224.74 62.06 224.67 62.85 224.67 63.69V64.08C224.67 64.92 224.74 65.7 224.88 66.43L224.87 66.45Z" fill="black"/>
<path d="M252.17 73.5101C250.91 73.0001 249.83 72.3101 248.92 71.4301C248.02 70.5601 247.32 69.5401 246.83 68.3601C246.34 67.1801 246.1 65.9101 246.1 64.5701V63.8301C246.1 62.3001 246.34 60.9001 246.82 59.6301C247.3 58.3601 247.98 57.2701 248.84 56.3501C249.71 55.4301 250.73 54.7201 251.92 54.2201C253.11 53.7101 254.4 53.4601 255.8 53.4601C257.2 53.4601 258.54 53.7001 259.67 54.1701C260.8 54.6501 261.76 55.3201 262.56 56.1801C263.34 57.0501 263.93 58.0901 264.34 59.3101C264.75 60.5301 264.95 61.8701 264.95 63.3501V65.5401H251.33V65.6001C251.5 66.4001 251.73 67.0501 252 67.5401C252.27 68.0301 252.64 68.4701 253.09 68.8701C253.56 69.2801 254.1 69.5901 254.7 69.8201C255.31 70.0401 255.97 70.1501 256.69 70.1501C257.7 70.1501 258.69 69.9601 259.64 69.5701C260.59 69.1901 261.37 68.6101 261.96 67.8401L264.54 70.6201C263.88 71.5501 262.85 72.3901 261.42 73.1401C260 73.8901 258.32 74.2701 256.37 74.2701C254.82 74.2701 253.42 74.0201 252.16 73.5101H252.17ZM254.17 57.9301C253.69 58.1401 253.27 58.4301 252.91 58.8101C252.54 59.1901 252.23 59.6501 251.98 60.1801C251.73 60.7101 251.55 61.3101 251.42 61.9601H259.88V61.5501C259.88 61.0101 259.78 60.4901 259.58 60.0101C259.38 59.5301 259.11 59.1101 258.76 58.7501C258.41 58.4001 257.99 58.1301 257.49 57.9201C256.99 57.7201 256.41 57.6101 255.76 57.6101C255.18 57.6101 254.65 57.7101 254.16 57.9201L254.17 57.9301Z" fill="black"/>
<path d="M184.52 107.11C184.02 108.2 183.35 109.13 182.51 109.89C181.67 110.66 180.67 111.25 179.5 111.66C178.34 112.08 177.05 112.28 175.64 112.28C174.53 112.28 173.5 112.13 172.55 111.84C171.6 111.55 170.75 111.13 170 110.59C169.31 110.08 168.69 109.47 168.15 108.75C167.61 108.03 167.16 107.24 166.79 106.37C166.43 105.5 166.16 104.55 165.96 103.51C165.77 102.47 165.67 101.37 165.67 100.21V96.57C165.67 95.48 165.76 94.45 165.93 93.46C166.1 92.48 166.36 91.57 166.71 90.72C167.11 89.69 167.63 88.78 168.27 87.97C168.91 87.17 169.64 86.49 170.46 85.93C171.19 85.46 171.99 85.1 172.86 84.84C173.73 84.59 174.67 84.46 175.67 84.46C177.15 84.46 178.47 84.67 179.63 85.09C180.79 85.51 181.77 86.11 182.59 86.89C183.41 87.67 184.05 88.62 184.52 89.75C184.99 90.88 185.29 92.14 185.41 93.55H180.21C180.16 92.75 180.04 92.04 179.85 91.43C179.66 90.82 179.38 90.32 179.02 89.91C178.65 89.51 178.19 89.21 177.64 89.01C177.09 88.8 176.43 88.7 175.66 88.7C175.25 88.7 174.87 88.74 174.52 88.83C174.17 88.92 173.84 89.05 173.55 89.22C173.04 89.52 172.61 89.94 172.26 90.49C171.91 91.04 171.63 91.68 171.42 92.41C171.26 92.98 171.14 93.61 171.07 94.29C171 94.98 170.96 95.72 170.96 96.51V100.18C170.96 101.26 171.02 102.22 171.14 103.07C171.26 103.92 171.44 104.66 171.69 105.29C171.86 105.72 172.07 106.11 172.31 106.44C172.55 106.77 172.83 107.05 173.14 107.27C173.47 107.52 173.85 107.7 174.26 107.82C174.67 107.94 175.14 108 175.64 108C176.32 108 176.93 107.91 177.48 107.74C178.02 107.57 178.49 107.29 178.87 106.92C179.25 106.55 179.56 106.07 179.78 105.49C180 104.91 180.14 104.21 180.19 103.39H185.4C185.31 104.75 185.02 105.98 184.52 107.06V107.11Z" fill="black"/>
<path d="M206.24 109.08C205.56 110.08 204.74 110.87 203.78 111.44C202.82 112.01 201.77 112.29 200.63 112.29C199.59 112.29 198.64 112.13 197.77 111.81C196.9 111.49 196.16 110.98 195.54 110.27C194.92 109.58 194.44 108.69 194.1 107.61C193.76 106.53 193.59 105.23 193.59 103.7V91.8201H198.75V103.73C198.75 104.55 198.81 105.23 198.93 105.79C199.05 106.35 199.24 106.79 199.5 107.13C199.76 107.48 200.1 107.72 200.52 107.87C200.94 108.02 201.45 108.09 202.06 108.09C202.6 108.09 203.1 108.03 203.54 107.92C203.98 107.81 204.37 107.65 204.7 107.44C204.98 107.25 205.24 107.03 205.46 106.77C205.68 106.51 205.87 106.22 206.04 105.9V91.8201H211.22V111.9H206.54L206.24 109.08Z" fill="black"/>
<path d="M220.11 91.8201H224.88L225.07 93.7901C225.34 93.4601 225.64 93.1601 225.96 92.8901C226.28 92.6201 226.63 92.3901 227 92.1901C227.45 91.9601 227.94 91.7701 228.48 91.6401C229.02 91.5101 229.6 91.4401 230.21 91.4401C231.48 91.4401 232.61 91.6801 233.59 92.1701C234.57 92.6601 235.39 93.3501 236.06 94.2401C236.73 95.1401 237.23 96.2201 237.57 97.4801C237.91 98.7401 238.08 100.12 238.08 101.65V102.04C238.08 103.5 237.91 104.85 237.57 106.1C237.23 107.35 236.73 108.43 236.08 109.33C235.41 110.25 234.59 110.96 233.61 111.48C232.63 112 231.51 112.26 230.25 112.26C229.58 112.26 228.97 112.19 228.4 112.05C227.84 111.91 227.31 111.7 226.83 111.43C226.55 111.26 226.27 111.07 226.01 110.85C225.75 110.64 225.5 110.4 225.27 110.14V119.6H220.11V91.8101V91.8201ZM232.68 99.2901C232.53 98.5501 232.29 97.9101 231.97 97.3701C231.64 96.8401 231.21 96.4201 230.7 96.1101C230.19 95.8001 229.56 95.6501 228.84 95.6501C228.42 95.6501 228.04 95.6901 227.69 95.7701C227.34 95.8501 227.03 95.9601 226.74 96.1101C226.42 96.2801 226.14 96.5001 225.9 96.7601C225.66 97.0201 225.45 97.3201 225.28 97.6701V106.06C225.44 106.38 225.64 106.67 225.86 106.93C226.09 107.19 226.35 107.41 226.65 107.6C226.93 107.77 227.26 107.91 227.63 108C228 108.09 228.42 108.14 228.87 108.14C229.6 108.14 230.22 107.98 230.73 107.66C231.24 107.34 231.66 106.9 231.98 106.34C232.3 105.78 232.54 105.14 232.69 104.4C232.84 103.66 232.91 102.88 232.91 102.05V101.66C232.91 100.82 232.83 100.03 232.68 99.2901Z" fill="black"/>
</g>
<defs>
<clipPath id="clip0_30_25">
<rect width="320.04" height="125.34" fill="white" transform="translate(0 0.119995)"/>
</clipPath>
</defs>
</svg>
