<?xml version="1.0" standalone="no"?>
<!DOCTYPE svg PUBLIC "-//W3C//DTD SVG 20010904//EN"
 "http://www.w3.org/TR/2001/REC-SVG-20010904/DTD/svg10.dtd">
<svg version="1.0" xmlns="http://www.w3.org/2000/svg"
 width="525.000000pt" height="352.000000pt" viewBox="0 0 525.000000 352.000000"
 preserveAspectRatio="xMidYMid meet">

<g transform="translate(0.000000,352.000000) scale(0.100000,-0.100000)"
fill="#eaf4f5" stroke="none">
<path d="M72 3414 c2 -26 63 -90 364 -387 l362 -357 538 0 539 0 200 -200 200
-200 827 0 c752 0 828 -1 828 -16 0 -9 15 -31 34 -50 28 -28 42 -34 75 -34 78
0 125 44 125 115 0 70 -47 115 -122 115 -44 0 -88 -28 -102 -66 l-10 -24 -817
0 -818 0 -200 200 -200 200 -545 0 -545 0 -368 368 c-322 321 -368 363 -365
336z m4028 -1074 c47 -47 11 -130 -56 -130 -37 0 -74 38 -74 75 0 12 9 34 21
49 26 33 79 36 109 6z"/>
<path d="M70 2540 c0 -8 89 -104 198 -213 l197 -197 497 0 c489 0 497 0 503
-20 9 -28 59 -52 90 -44 77 19 82 127 7 155 -30 12 -88 -12 -97 -40 -6 -21 -8
-21 -503 -21 l-497 0 -197 197 c-109 109 -198 191 -198 183z"/>
<path d="M1770 1975 l-155 -155 -772 0 c-680 0 -773 -2 -773 -15 0 -13 93 -15
778 -15 l777 0 160 160 160 160 630 0 630 0 127 -127 127 -127 -6 -43 c-5 -37
-2 -48 17 -68 27 -29 74 -33 107 -10 28 19 39 70 23 101 -15 28 -62 48 -93 40
-19 -4 -43 15 -152 124 l-130 130 -650 0 -650 0 -155 -155z m1799 -139 c35
-41 -19 -111 -63 -83 -29 20 -37 51 -20 76 18 24 65 28 83 7z"/>
<path d="M4774 2058 c-12 -5 -27 -21 -35 -34 l-12 -24 -464 0 c-405 0 -463 -2
-463 -15 0 -13 58 -15 462 -15 l462 0 26 -32 c35 -42 83 -43 117 -4 36 42 25
103 -24 125 -29 13 -41 13 -69 -1z"/>
<path d="M2067 1654 l-119 -124 -939 0 c-932 0 -939 0 -939 -20 0 -20 7 -20
943 -20 l942 0 125 125 125 125 270 0 270 0 145 -145 145 -145 876 0 877 0 20
-34 c46 -78 128 -92 188 -32 29 29 34 41 34 81 0 40 -5 52 -34 81 -29 29 -41
34 -79 34 -49 0 -100 -32 -112 -70 -6 -20 -22 -20 -883 -20 l-877 0 -145 145
-145 145 -285 -1 -285 0 -118 -125z m2900 -136 c47 -44 14 -128 -51 -128 -40
0 -76 35 -76 74 0 66 78 100 127 54z"/>
<path d="M1653 1310 c-12 -5 -28 -18 -35 -30 -13 -20 -20 -20 -523 -20 l-510
0 -258 -258 c-221 -221 -257 -261 -257 -287 0 -27 24 -6 268 238 l267 267 502
0 c500 0 502 0 508 -21 10 -30 61 -49 98 -36 53 18 68 99 25 134 -20 17 -60
23 -85 13z m73 -45 c19 -30 11 -62 -21 -77 -49 -22 -96 42 -60 82 25 27 61 25
81 -5z"/>
<path d="M3983 1260 c-12 -5 -29 -20 -39 -34 l-16 -26 -827 0 -826 0 -200
-200 -200 -200 -540 0 -540 0 -363 -363 c-233 -233 -362 -369 -362 -382 0 -14
117 97 368 348 l367 367 540 0 540 0 205 205 205 205 812 0 812 0 15 -29 c31
-60 118 -63 145 -5 17 37 14 60 -11 88 -27 29 -55 38 -85 26z"/>
</g>
</svg>
