<?xml version="1.0" standalone="no"?>
<!DOCTYPE svg PUBLIC "-//W3C//DTD SVG 20010904//EN"
 "http://www.w3.org/TR/2001/REC-SVG-20010904/DTD/svg10.dtd">
<svg version="1.0" xmlns="http://www.w3.org/2000/svg"
 width="987.000000pt" height="530.000000pt" viewBox="0 0 987.000000 530.000000"
 preserveAspectRatio="xMidYMid meet">

<g transform="translate(0.000000,530.000000) scale(0.100000,-0.100000)"
fill="blue" stroke="none">
<path d="M3610 5247 c0 -2 73 -35 162 -73 l163 -69 -1948 -3 -1947 -2 0 -200
0 -200 1906 -2 1906 -3 -1772 -709 c-1456 -583 -1770 -712 -1765 -725 3 -9 36
-92 72 -184 51 -129 71 -167 83 -164 8 2 816 325 1795 717 979 392 1787 715
1795 717 8 3 -605 -615 -1363 -1373 l-1377 -1379 140 -140 140 -140 1360 1360
1361 1360 -34 -80 c-19 -44 -356 -834 -750 -1755 -394 -921 -717 -1681 -719
-1689 -2 -9 55 -39 175 -92 l178 -78 22 52 c13 29 358 833 768 1787 l744 1735
3 -1943 2 -1942 200 0 200 0 2 1911 3 1910 710 -1770 c390 -974 713 -1771 719
-1771 5 0 88 30 183 67 152 60 173 70 170 88 -2 11 -325 821 -717 1800 -392
979 -715 1787 -717 1795 -3 8 616 -606 1376 -1365 l1381 -1380 140 140 140
140 -1357 1358 -1358 1358 70 -30 c39 -16 828 -354 1755 -751 927 -397 1690
-724 1695 -726 8 -3 118 237 160 347 4 11 -413 193 -1778 779 l-1783 765 1940
5 1941 5 3 197 2 198 -1922 2 -1922 3 180 72 179 72 -1347 0 c-742 1 -1348 -1
-1348 -2z"/>
</g>
</svg>
