<?xml version="1.0" standalone="no"?>
<!DOCTYPE svg PUBLIC "-//W3C//DTD SVG 20010904//EN"
 "http://www.w3.org/TR/2001/REC-SVG-20010904/DTD/svg10.dtd">
<svg version="1.0" xmlns="http://www.w3.org/2000/svg"
 width="821.000000pt" height="787.000000pt" viewBox="0 0 821.000000 787.000000"
 preserveAspectRatio="xMidYMid meet">

<g transform="translate(0.000000,787.000000) scale(0.100000,-0.100000)"
fill="#000000" stroke="none">
<path d="M2583 7506 c-24 -21 -28 -31 -28 -78 0 -29 8 -100 17 -158 63 -389
31 -886 -87 -1320 -70 -261 -154 -481 -279 -730 -232 -466 -519 -853 -946
-1281 -352 -353 -653 -601 -1091 -902 -74 -51 -130 -97 -137 -112 -20 -44 -14
-75 20 -109 l33 -32 495 -12 c1009 -25 1817 -100 2349 -218 497 -111 1065
-466 1830 -1143 222 -196 827 -799 1035 -1031 81 -91 162 -174 180 -184 46
-27 98 -16 125 27 19 31 20 45 14 362 -12 692 55 1342 222 2165 95 469 189
777 350 1145 275 633 722 1232 1260 1689 109 93 115 101 115 153 0 33 -6 50
-25 68 -30 31 -57 32 -357 5 -386 -33 -669 -45 -1113 -44 -780 3 -1290 54
-1634 166 -394 127 -773 336 -1219 672 -262 197 -446 359 -748 658 -266 263
-271 268 -312 268 -29 0 -49 -7 -69 -24z m253 -162 c221 -232 533 -516 767
-697 547 -424 1022 -676 1502 -796 289 -72 834 -114 1495 -115 452 0 961 25
1293 65 75 9 92 8 112 -5 25 -17 41 -67 28 -90 -4 -7 -66 -65 -138 -126 -327
-284 -626 -627 -868 -996 -118 -181 -175 -279 -274 -479 -197 -395 -315 -739
-422 -1235 -123 -570 -184 -982 -233 -1580 -11 -139 -17 -691 -9 -930 3 -108
2 -115 -19 -132 -30 -25 -74 -23 -103 4 -13 13 -87 93 -163 178 -198 220 -644
671 -884 893 -807 748 -1464 1169 -1998 1281 -577 122 -1361 193 -2369 216
-249 6 -459 13 -467 16 -21 8 -39 59 -32 89 4 17 38 46 114 97 226 151 608
445 795 611 317 281 656 649 879 952 445 606 721 1315 779 2001 16 189 6 529
-20 704 -12 74 -21 148 -21 164 0 42 26 66 70 66 36 0 46 -9 186 -156z"/>
</g>
</svg>
