<?xml version="1.0" standalone="no"?>
<!DOCTYPE svg PUBLIC "-//W3C//DTD SVG 20010904//EN"
 "http://www.w3.org/TR/2001/REC-SVG-20010904/DTD/svg10.dtd">
<svg version="1.0" xmlns="http://www.w3.org/2000/svg"
 width="592.000000pt" height="583.000000pt" viewBox="0 0 592.000000 583.000000"
 preserveAspectRatio="xMidYMid meet">

<g transform="translate(0.000000,583.000000) scale(0.100000,-0.100000)"
fill="blue" stroke="none">
<path d="M2731 4983 c-124 -395 -228 -722 -232 -726 -3 -5 -298 199 -654 453
-356 254 -648 460 -650 458 -2 -2 118 -324 267 -716 148 -392 268 -716 265
-719 -3 -3 -368 5 -811 17 -443 12 -809 20 -814 19 -6 -2 293 -197 664 -434
371 -236 674 -432 674 -435 0 -3 -302 -198 -672 -435 l-672 -430 49 -3 c28 -2
393 6 813 18 420 12 766 20 769 17 3 -3 -117 -327 -265 -719 -149 -392 -269
-714 -267 -716 2 -2 296 206 654 462 l650 465 28 -92 c282 -903 429 -1367 433
-1367 3 0 109 326 235 725 126 399 232 725 236 725 4 0 296 -207 649 -461 353
-253 644 -458 646 -456 3 2 -119 327 -269 721 l-274 717 106 -6 c173 -9 1411
-37 1476 -33 l59 3 -672 430 c-369 237 -672 432 -672 435 0 3 302 199 671 435
399 255 665 431 654 433 -9 2 -372 -6 -805 -18 -434 -12 -795 -20 -803 -18
-12 2 38 140 214 598 126 327 251 653 278 723 28 71 44 124 38 119 -39 -30
-1283 -915 -1292 -918 -6 -3 -102 284 -240 721 -126 399 -232 725 -235 725 -3
0 -106 -323 -229 -717z m413 -121 c99 -312 193 -609 210 -660 l31 -92 580 418
c319 231 581 416 582 413 2 -3 -107 -294 -241 -646 l-244 -640 97 -3 c53 -2
381 4 730 13 349 8 636 14 637 12 2 -2 -269 -176 -601 -387 -333 -212 -604
-387 -604 -390 0 -3 271 -178 603 -390 332 -212 602 -387 600 -389 -1 -2 -324
5 -717 14 -392 9 -721 16 -730 14 -13 -3 30 -125 232 -656 l248 -652 -46 33
c-25 18 -284 206 -576 418 -291 211 -535 387 -541 391 -7 4 -82 -217 -219
-648 -115 -360 -212 -655 -215 -655 -4 0 -98 289 -210 643 -111 353 -205 647
-209 654 -4 8 -207 -133 -586 -406 -319 -229 -581 -415 -582 -412 -2 3 107
296 242 649 135 354 245 645 245 645 0 1 -298 -6 -662 -15 -365 -10 -695 -17
-734 -15 l-71 2 603 385 c332 212 603 387 603 390 0 3 -272 178 -605 390 -428
273 -598 386 -582 387 13 2 344 -5 736 -15 391 -9 712 -16 712 -15 0 0 -110
291 -245 645 -135 353 -244 646 -242 649 1 3 263 -183 582 -413 l580 -418 11
28 c6 15 101 312 210 659 110 348 201 633 204 633 3 0 86 -255 184 -568z"/>
</g>
</svg>
